<?xml version="1.0" standalone="no"?><!DOCTYPE svg PUBLIC "-//W3C//DTD SVG 1.1//EN" "http://www.w3.org/Graphics/SVG/1.1/DTD/svg11.dtd"><svg height="1200" legacy-metrics="false" node-id="1" sillyvg="true" template-height="1200" template-width="1200" version="1.1" viewBox="0 0 1200 1200" width="1200" xmlns="http://www.w3.org/2000/svg" xmlns:xlink="http://www.w3.org/1999/xlink"><defs node-id="119"><linearGradient gradientUnits="userSpaceOnUse" id="SVGID_1_" node-id="7" x1="813.6246" x2="874.9727" y1="673.578" y2="529.6378"><stop offset="0.0000004984026" stop-color="#ffdbd4"></stop><stop offset="1" stop-color="#ffd1bf"></stop></linearGradient><linearGradient gradientUnits="userSpaceOnUse" id="SVGID_00000041274022241000022620000001933288027525682096_" node-id="11" x1="861.934" x2="859.395" y1="540.1668" y2="672.067"><stop offset="0.000000258786" stop-color="#fac1b6"></stop><stop offset="1" stop-color="#ffded1"></stop></linearGradient><linearGradient gradientUnits="userSpaceOnUse" id="SVGID_00000150804302278633141610000003417703795747858832_" node-id="15" x1="861.934" x2="859.395" y1="540.1749" y2="672.0751"><stop offset="0.000000258786" stop-color="#fac1b6"></stop><stop offset="1" stop-color="#ffded1"></stop></linearGradient><linearGradient gradientUnits="userSpaceOnUse" id="SVGID_00000072278543650831315320000001575281256619272080_" node-id="20" x1="-1327.2522" x2="-1388.6003" y1="671.1686" y2="527.2284"><stop offset="0.0000004984026" stop-color="#ffdbd4"></stop><stop offset="1" stop-color="#ffd1bf"></stop></linearGradient><linearGradient gradientUnits="userSpaceOnUse" id="SVGID_00000139272615429369587990000003549842631772055719_" node-id="24" x1="-1375.5616" x2="-1373.0226" y1="537.7574" y2="669.6576"><stop offset="0.000000258786" stop-color="#fac1b6"></stop><stop offset="1" stop-color="#ffded1"></stop></linearGradient><linearGradient gradientUnits="userSpaceOnUse" id="SVGID_00000045586139749866657110000011143173278952908708_" node-id="28" x1="600.7541" x2="602.6993" y1="959.7693" y2="826.2807"><stop offset="0.000000992013" stop-color="#ffdbd4"></stop><stop offset="1" stop-color="#ffbfaa"></stop></linearGradient><linearGradient gradientUnits="userSpaceOnUse" id="SVGID_00000086669369228773790540000012782718091505511868_" node-id="32" x1="608.2046" x2="596.0104" y1="222.9075" y2="856.4008"><stop offset="0.0000004984026" stop-color="#ffdbd4"></stop><stop offset="1" stop-color="#ffd1bf"></stop></linearGradient><linearGradient gradientUnits="userSpaceOnUse" id="SVGID_00000146474297880935928800000012491445944009596066_" node-id="38" x1="597.8458" x2="598.7593" y1="947.8961" y2="885.2014"><stop offset="0.000000876997" stop-color="#e3d6d3"></stop><stop offset="1" stop-color="#ffffff"></stop></linearGradient><linearGradient gradientUnits="userSpaceOnUse" id="SVGID_00000091721142755053566610000010279438530775361446_" node-id="42" x1="508.3549" x2="518.7401" y1="942.464" y2="881.2466"><stop offset="0.000001116614" stop-color="#384358"></stop><stop offset="1" stop-color="#373e54"></stop></linearGradient><linearGradient gradientUnits="userSpaceOnUse" id="SVGID_00000129169645491619736230000011917498069850919608_" node-id="46" x1="750.03" x2="569.7275" y1="887.0946" y2="962.7249"><stop offset="0.0000007523963" stop-color="#384358"></stop><stop offset="1" stop-color="#373e54"></stop></linearGradient><linearGradient gradientUnits="userSpaceOnUse" id="SVGID_00000048484206238763367500000015608915690128445884_" node-id="50" x1="427.2899" x2="450.522" y1="896.67" y2="905.9071"><stop offset="0" stop-color="#2e3240"></stop><stop offset="1" stop-color="#394254"></stop></linearGradient><linearGradient gradientUnits="userSpaceOnUse" id="SVGID_00000126283849308588609740000008910364652512579006_" node-id="54" x1="-667.5703" x2="-691.0577" y1="901.531" y2="910.8696"><stop offset="0.000000004792333" stop-color="#333847"></stop><stop offset="1" stop-color="#394254"></stop></linearGradient><linearGradient gradientUnits="userSpaceOnUse" id="SVGID_00000062879009962358100970000014843989571511000218_" node-id="76" x1="572.1055" x2="476.0143" y1="931.054" y2="876.7828"><stop offset="0.000001121406" stop-color="#3a455c"></stop><stop offset="1" stop-color="#2d3647"></stop></linearGradient><linearGradient gradientUnits="userSpaceOnUse" id="SVGID_00000022550787414942818450000017384847863263193257_" node-id="80" x1="-506.7234" x2="-392.4873" y1="936.6823" y2="872.163"><stop offset="0.000001121406" stop-color="#3a455c"></stop><stop offset="1" stop-color="#2d3647"></stop></linearGradient><linearGradient gradientUnits="userSpaceOnUse" id="SVGID_00000097465367921521291410000015196406162422161037_" node-id="86" x1="533.5169" x2="533.5169" y1="968.6423" y2="959.6879"><stop offset="0.000001121406" stop-color="#3a455c"></stop><stop offset="1" stop-color="#2d3647"></stop></linearGradient><linearGradient gradientUnits="userSpaceOnUse" id="SVGID_00000015347144571186729260000000595596604917379741_" node-id="91" x1="532.3512" x2="534.6826" y1="1097.0376" y2="1097.0376"><stop offset="0.000001365815" stop-color="#374057"></stop><stop offset="1" stop-color="#2a2f40"></stop></linearGradient><linearGradient gradientUnits="userSpaceOnUse" id="SVGID_00000066496069555437837350000007353230116101699725_" node-id="95" x1="533.5169" x2="533.5169" y1="961.4545" y2="1097.0385"><stop offset="0.000001365815" stop-color="#374057"></stop><stop offset="0.0286" stop-color="#384259"></stop><stop offset="1" stop-color="#2b3142"></stop></linearGradient><linearGradient gradientUnits="userSpaceOnUse" id="SVGID_00000018202970010821522180000001644865853782534054_" node-id="101" x1="667.4077" x2="667.4077" y1="968.6423" y2="959.6879"><stop offset="0.000001121406" stop-color="#3a455c"></stop><stop offset="1" stop-color="#2d3647"></stop></linearGradient><linearGradient gradientUnits="userSpaceOnUse" id="SVGID_00000179634784073871277410000005177971953739867048_" node-id="106" x1="666.242" x2="668.5735" y1="1097.0376" y2="1097.0376"><stop offset="0.000001365815" stop-color="#374057"></stop><stop offset="1" stop-color="#2a2f40"></stop></linearGradient><linearGradient gradientUnits="userSpaceOnUse" id="SVGID_00000130629832915011491520000011632878094479347584_" node-id="110" x1="667.4077" x2="667.4077" y1="961.4545" y2="1097.0385"><stop offset="0.000001365815" stop-color="#374057"></stop><stop offset="0.0286" stop-color="#384259"></stop><stop offset="1" stop-color="#2b3142"></stop></linearGradient></defs><g node-id="336"><path d="M 804.76 536.45 C 804.76 536.45 891.49 490.01 913.49 531.89 C 935.49 573.76 881.95 714.15 804.76 684.75 L 804.76 536.45 Z" fill="url(#SVGID_1_)" fill-rule="evenodd" group-id="1" node-id="250" stroke="none" target-height="174.32788" target-width="113.69702" target-x="804.76" target-y="514.44556"></path><path d="M 860.47 540.19 C 860.47 540.19 906.28 527.57 903.41 562.65 C 900.54 597.74 880.00 669.17 817.40 671.65 L 860.47 540.19 Z" fill="url(#SVGID_00000041274022241000022620000001933288027525682096_)" fill-rule="evenodd" group-id="1" node-id="252" stroke="none" target-height="133.66571" target-width="86.1181" target-x="817.4" target-y="537.9843"></path><path d="M 860.47 540.20 C 860.47 540.20 906.28 527.58 903.41 562.66 C 900.54 597.75 880.00 669.18 817.40 671.66 L 860.47 540.20 Z" fill="url(#SVGID_00000150804302278633141610000003417703795747858832_)" fill-rule="evenodd" group-id="1" node-id="254" stroke="none" target-height="133.66559" target-width="86.118164" target-x="817.4" target-y="537.9944"></path><path d="M 397.97 682.34 C 320.78 711.74 267.25 571.36 289.24 529.48 C 311.24 487.61 397.97 534.04 397.97 534.04 L 397.97 682.34 Z" fill="url(#SVGID_00000072278543650831315320000001575281256619272080_)" fill-rule="evenodd" group-id="1" node-id="256" stroke="none" target-height="174.32379" target-width="113.69385" target-x="284.27615" target-y="512.0399"></path><path d="M 342.26 537.78 C 342.26 537.78 296.45 525.16 299.32 560.24 C 302.19 595.32 322.73 666.76 385.33 669.24 L 342.26 537.78 Z" fill="url(#SVGID_00000139272615429369587990000003549842631772055719_)" fill-rule="evenodd" group-id="1" node-id="258" stroke="none" target-height="133.66565" target-width="86.11813" target-x="299.21185" target-y="535.57434"></path></g><path d="M 697.81 825.17 L 601.56 826.55 L 505.31 825.17 C 505.31 825.17 499.26 881.15 488.52 922.80 C 483.01 944.17 499.10 964.99 521.16 964.99 L 598.89 964.99 L 604.23 964.99 L 678.66 964.99 C 702.28 964.99 719.57 942.80 713.86 919.88 C 703.58 878.59 697.81 825.17 697.81 825.17 Z" fill="url(#SVGID_00000045586139749866657110000011143173278952908708_)" fill-rule="evenodd" node-id="261" stroke="none" target-height="139.82" target-width="227.52728" target-x="487.4342" target-y="825.17"></path><path d="M 841.33 595.02 C 841.33 619.62 836.14 649.76 830.65 674.80 C 823.88 705.64 809.71 734.37 789.33 758.50 L 771.81 779.24 C 746.53 809.17 712.79 830.75 675.02 841.15 L 622.79 855.53 C 608.78 859.39 593.98 859.37 579.98 855.49 L 526.20 840.58 C 489.94 830.53 457.28 810.37 432.02 782.47 L 415.02 763.68 C 397.91 744.78 385.50 724.13 378.71 699.56 C 370.61 670.23 361.43 627.78 361.43 595.02 C 361.43 382.85 371.53 210.85 601.39 210.85 C 806.29 210.85 841.33 382.85 841.33 595.02 Z" fill="url(#SVGID_00000086669369228773790540000012782718091505511868_)" fill-rule="evenodd" node-id="263" stroke="none" target-height="647.5625" target-width="479.90002" target-x="361.43" target-y="210.85"></path><path d="M 870.07 563.17 C 870.07 563.17 884.09 465.28 855.90 377.53 L 892.85 413.89 C 892.85 413.89 858.55 227.38 774.78 199.45 L 810.34 204.74 C 810.34 204.74 783.02 154.40 683.80 163.78 L 715.17 137.35 C 715.17 137.35 633.26 154.30 621.05 150.56 C 621.05 150.56 566.04 105.20 484.05 91.10 L 537.39 149.24 C 537.39 149.24 512.57 130.70 442.22 143.95 L 496.60 159.81 C 496.60 159.81 408.92 148.72 374.24 186.24 L 443.26 190.20 C 443.26 190.20 417.06 182.55 384.09 215.84 C 355.90 244.31 322.77 294.01 296.84 380.47 C 296.84 380.47 315.32 348.09 325.08 347.44 C 325.08 347.44 312.38 573.52 373.05 676.01 L 365.59 559.90 L 372.13 543.00 C 372.13 543.00 380.88 460.29 382.59 453.15 C 384.30 446.01 385.62 381.44 478.81 372.55 C 510.42 369.53 556.61 365.00 604.93 364.93 C 699.06 364.80 801.31 381.64 819.75 459.76 C 819.75 459.76 825.70 478.21 831.23 507.46 C 831.60 509.40 840.90 518.68 842.20 532.42 C 845.48 567.15 840.89 640.88 835.43 676.01 C 831.39 703.23 868.50 579.04 870.07 563.17 Z" fill="#32333f" fill-rule="evenodd" node-id="265" stroke="none" target-height="588.76416" target-width="596.01" target-x="296.84" target-y="91.1"></path><path d="M 450.25 897.82 C 406.27 921.52 385.03 931.03 363.66 936.69 C 291.63 955.78 220.55 1010.28 171.51 1200.00 L 1029.48 1200.00 C 1029.48 1200.00 966.87 996.36 854.67 940.68 C 822.44 925.97 795.97 927.22 758.52 901.24 C 728.79 884.94 657.24 930.79 594.48 934.70 C 540.60 938.06 469.69 904.55 450.25 897.82 Z" fill="#373e54" fill-rule="evenodd" node-id="267" stroke="none" target-height="302.24402" target-width="857.97" target-x="171.51" target-y="897.756"></path><path d="M 497.94 889.34 C 497.94 889.34 547.00 914.88 598.51 914.88 C 650.02 914.88 703.31 886.73 703.31 886.73 C 703.31 886.73 721.52 913.77 684.44 924.43 C 647.36 935.09 598.29 962.84 531.01 937.09 C 463.72 911.32 497.94 889.34 497.94 889.34 Z" fill="url(#SVGID_00000146474297880935928800000012491445944009596066_)" fill-rule="evenodd" node-id="269" stroke="none" target-height="61.0058" target-width="218.49326" target-x="489.2867" target-y="886.73"></path><path d="M 434.51 938.57 C 461.20 974.26 504.07 969.76 557.27 971.52 C 593.05 972.70 594.15 968.85 594.84 967.72 C 600.92 957.73 580.93 925.16 572.46 925.31 C 551.49 925.69 487.29 917.36 499.56 867.33 C 500.35 864.12 501.81 851.38 502.63 846.49 C 447.74 848.48 429.57 876.24 425.86 890.77 C 425.59 891.83 428.48 895.08 428.48 895.08 C 428.48 895.08 424.48 899.20 424.33 900.49 C 422.68 914.81 426.62 928.01 434.51 938.57 Z" fill="url(#SVGID_00000091721142755053566610000010279438530775361446_)" fill-rule="evenodd" node-id="271" stroke="none" target-height="125.244995" target-width="171.97226" target-x="423.97794" target-y="846.49"></path><path d="M 700.48 846.50 C 701.98 853.41 701.64 859.20 703.38 866.28 C 714.61 911.81 627.02 927.90 607.16 927.54 C 599.17 927.40 589.40 946.86 581.85 959.96 C 580.58 962.16 577.47 967.46 576.97 969.95 C 576.25 973.49 591.45 970.71 629.41 971.53 C 682.63 972.67 759.22 967.16 772.15 907.06 C 772.97 903.25 768.61 898.73 768.61 898.73 C 768.61 898.73 771.69 897.76 771.13 894.39 C 767.85 874.65 740.96 849.30 700.48 846.50 Z" fill="url(#SVGID_00000129169645491619736230000011917498069850919608_)" fill-rule="evenodd" node-id="273" stroke="none" target-height="125.27936" target-width="195.2044" target-x="576.97" target-y="846.5"></path><path d="M 460.70 905.22 C 444.19 906.32 425.85 891.12 425.82 891.09 C 425.79 892.29 428.47 895.09 428.47 895.09 C 428.47 895.09 424.47 899.21 424.32 900.50 C 434.34 904.61 460.70 905.22 460.70 905.22 Z" fill="url(#SVGID_00000048484206238763367500000015608915690128445884_)" fill-rule="evenodd" node-id="275" stroke="none" target-height="14.13324" target-width="36.380005" target-x="424.32" target-y="891.09"></path><path d="M 735.86 908.92 C 752.37 910.02 771.15 894.82 771.18 894.79 C 771.36 897.76 768.61 898.73 768.61 898.73 C 768.61 898.73 772.23 901.45 772.23 906.33 C 763.39 914.04 735.86 908.92 735.86 908.92 Z" fill="url(#SVGID_00000126283849308588609740000008910364652512579006_)" fill-rule="evenodd" node-id="277" stroke="none" target-height="15.782471" target-width="36.369995" target-x="735.86" target-y="894.79"></path><path d="M 674.41 505.79 C 675.83 484.27 696.81 487.14 709.72 488.00 C 725.78 489.06 756.24 495.63 783.28 516.81 C 795.25 526.19 796.54 535.06 775.88 529.62 C 748.23 522.34 729.49 520.45 717.57 518.64 C 698.82 515.80 673.66 517.08 674.41 505.79 Z" fill="#3a302e" fill-rule="evenodd" node-id="279" stroke="none" target-height="43.85327" target-width="117.472046" target-x="674.41" target-y="487.39612"></path><path d="M 483.52 517.96 C 471.86 519.72 453.54 521.58 426.49 528.70 C 406.28 534.02 407.54 525.34 419.25 516.17 C 445.69 495.46 475.49 489.04 491.20 487.99 C 503.82 487.15 524.35 484.34 525.74 505.39 C 526.45 516.44 501.85 515.18 483.52 517.96 Z" fill="#3a302e" fill-rule="evenodd" node-id="281" stroke="none" target-height="42.893494" target-width="114.90454" target-x="410.83545" target-y="487.3996"></path><path d="M 621.28 696.40 C 621.28 702.94 611.07 708.24 598.48 708.24 C 585.89 708.24 575.68 702.94 575.68 696.40 C 575.68 689.86 585.89 676.46 598.48 676.46 C 611.08 676.46 621.28 689.86 621.28 696.40 Z" fill="#ffcbbb" fill-rule="nonzero" node-id="283" stroke="none" target-height="31.779968" target-width="45.600037" target-x="575.68" target-y="676.46"></path><path d="M 484.83 537.07 C 473.86 537.07 464.11 544.38 457.85 555.74 L 463.27 561.22 L 455.24 561.22 C 452.32 568.35 450.64 576.62 450.64 585.46 C 450.64 612.19 465.95 633.86 484.84 633.86 C 503.73 633.86 519.04 612.19 519.04 585.46 C 519.03 558.74 503.71 537.07 484.83 537.07 Z" fill="#3a302e" fill-rule="evenodd" group-id="2" node-id="287" stroke="none" target-height="96.78998" target-width="68.39996" target-x="450.64" target-y="537.07"></path><path d="M 503.96 576.43 C 503.96 584.27 500.41 590.62 496.02 590.62 C 491.63 590.62 488.08 584.27 488.08 576.43 C 488.08 568.59 491.63 562.24 496.02 562.24 C 500.41 562.24 503.96 568.59 503.96 576.43 Z" fill="#fff9f8" fill-rule="evenodd" group-id="2" node-id="289" stroke="none" target-height="28.380005" target-width="15.880005" target-x="488.08" target-y="562.24"></path><path d="M 717.91 537.07 C 728.88 537.07 738.63 544.38 744.89 555.74 L 739.47 561.22 L 749.29 566.24 C 752.21 573.37 752.10 576.63 752.10 585.46 C 752.10 612.19 736.79 633.86 717.90 633.86 C 699.01 633.86 683.70 612.19 683.70 585.46 C 683.71 558.74 699.02 537.07 717.91 537.07 Z" fill="#3a302e" fill-rule="evenodd" group-id="2" node-id="291" stroke="none" target-height="96.78998" target-width="68.39996" target-x="683.7" target-y="537.07"></path><path d="M 709.97 576.43 C 709.97 584.27 706.42 590.62 702.03 590.62 C 697.64 590.62 694.09 584.27 694.09 576.43 C 694.09 568.59 697.64 562.24 702.03 562.24 C 706.42 562.24 709.97 568.59 709.97 576.43 Z" fill="#fff9f8" fill-rule="evenodd" group-id="2" node-id="293" stroke="none" target-height="28.380005" target-width="15.879944" target-x="694.09" target-y="562.24"></path><path d="M 502.45 693.19 C 502.45 703.80 483.76 712.41 460.70 712.41 C 437.64 712.41 418.95 703.80 418.95 693.19 C 418.95 682.58 437.64 673.97 460.70 673.97 C 483.76 673.97 502.45 682.58 502.45 693.19 Z" fill="#ffc2c2" fill-rule="evenodd" node-id="296" stroke="none" target-height="38.440002" target-width="83.5" target-x="418.95" target-y="673.97"></path><path d="M 791.28 693.19 C 791.28 703.80 772.59 712.41 749.53 712.41 C 726.47 712.41 707.78 703.80 707.78 693.19 C 707.78 682.58 726.47 673.97 749.53 673.97 C 772.59 673.97 791.28 682.58 791.28 693.19 Z" fill="#ffc2c2" fill-rule="evenodd" node-id="298" stroke="none" target-height="38.440002" target-width="83.5" target-x="707.78" target-y="673.97"></path><path d="M 370.61 1059.89 C 370.61 1059.89 299.42 1084.47 286.43 1200.00 L 326.83 1200.00 C 326.82 1200.00 333.64 1129.97 370.61 1059.89 Z" fill="#2e3444" fill-rule="evenodd" node-id="300" stroke="none" target-height="140.10999" target-width="84.17999" target-x="286.43" target-y="1059.89"></path><path d="M 818.25 1066.56 C 818.25 1066.56 884.27 1138.97 896.26 1200.00 L 849.80 1200.00 C 849.79 1200.00 855.22 1136.64 818.25 1066.56 Z" fill="#2e3444" fill-rule="evenodd" node-id="302" stroke="none" target-height="133.43994" target-width="78.01001" target-x="818.25" target-y="1066.56"></path><path d="M 366.53 559.89 L 373.76 542.99 C 373.76 542.99 385.12 448.15 388.36 426.08 L 321.42 442.55 C 325.70 538.67 338.57 620.69 374.77 676.01 L 366.53 559.89 Z" fill="#3d3f47" fill-rule="evenodd" node-id="304" stroke="none" target-height="249.93002" target-width="66.93997" target-x="321.42" target-y="426.08"></path><path d="M 874.11 563.17 C 874.11 563.17 887.65 477.57 863.94 394.72 L 814.82 441.70 C 816.92 446.30 817.17 454.64 818.50 459.75 C 818.50 459.75 825.07 478.20 831.19 507.45 C 831.59 509.39 841.88 518.67 843.32 532.41 C 846.94 567.14 841.87 640.87 835.84 676.00 C 835.47 678.26 835.42 679.46 835.62 679.78 L 866.08 593.62 C 870.46 579.11 873.66 567.36 874.11 563.17 Z" fill="#3d3f47" fill-rule="evenodd" node-id="306" stroke="none" target-height="285.06003" target-width="63.092285" target-x="814.82" target-y="394.72"></path><path d="M 329.80 497.75 C 329.80 497.75 340.74 421.77 340.65 432.02 C 340.49 451.57 341.83 485.90 351.04 520.23 C 351.04 520.23 356.38 450.30 364.68 435.18 C 366.83 431.27 375.33 495.15 375.33 495.15 C 375.33 495.15 374.71 438.69 387.69 435.18 C 384.92 451.67 386.20 457.16 390.03 473.41 C 394.29 442.11 424.24 395.81 429.83 392.25 C 429.83 392.25 419.81 447.67 429.83 469.17 C 429.83 469.17 446.87 389.87 462.91 392.25 C 462.91 392.25 452.68 413.68 468.98 454.18 C 468.98 454.18 472.82 398.27 491.97 378.86 C 491.97 378.86 474.59 404.72 492.63 439.84 C 492.63 439.84 494.23 391.82 514.02 383.16 C 514.02 383.16 508.09 416.55 520.12 433.75 C 520.12 433.75 520.03 380.29 537.07 380.29 C 537.07 380.29 543.71 420.78 547.71 430.10 C 547.71 430.10 547.09 380.29 561.12 381.00 C 561.12 381.00 556.23 407.22 563.48 450.10 C 563.48 450.10 576.72 378.55 590.76 378.55 C 590.76 378.55 586.27 420.97 607.72 442.75 C 607.72 442.75 607.86 396.97 617.86 383.46 C 638.15 380.74 626.98 444.38 626.98 444.38 C 626.98 444.38 647.26 402.24 646.26 380.74 C 646.26 380.74 664.06 402.81 668.75 444.86 C 668.75 444.86 676.37 399.71 674.29 380.35 C 674.29 380.35 693.26 386.68 703.28 430.40 C 703.28 430.40 723.33 398.86 698.27 371.63 C 698.27 371.63 739.69 404.36 736.19 452.38 C 736.19 452.38 763.15 410.93 744.18 371.27 C 744.18 371.27 764.00 391.10 781.26 473.53 C 781.26 473.53 795.37 452.74 786.35 391.82 C 786.35 391.82 820.90 382.50 815.86 495.03 C 815.86 495.03 852.20 430.64 817.78 379.75 C 817.78 379.75 855.63 413.68 855.20 470.54 C 855.20 470.54 871.83 423.73 855.20 385.50 C 855.20 385.50 876.08 423.72 878.64 455.73 C 898.11 378.89 860.62 255.32 701.11 270.33 C 680.47 268.07 257.15 258.48 329.80 497.75 Z" fill="#32333f" fill-rule="nonzero" node-id="308" stroke="none" target-height="251.13434" target-width="561.85645" target-x="321.496" target-y="269.09564"></path><path d="M 586.06 937.77 C 586.03 937.72 586.00 937.68 585.97 937.63 L 585.96 937.61 C 581.24 930.58 575.90 925.25 572.46 925.31 C 551.49 925.69 487.29 917.36 499.56 867.33 C 499.92 865.85 500.33 863.03 500.75 859.95 L 500.81 858.26 C 500.81 858.26 459.34 866.75 471.11 892.07 C 482.87 917.37 519.45 945.12 586.06 937.77 Z" fill="url(#SVGID_00000062879009962358100970000014843989571511000218_)" fill-rule="evenodd" node-id="310" stroke="none" target-height="80.70532" target-width="117.01083" target-x="469.04916" target-y="858.26"></path><path d="M 592.41 941.73 C 596.66 934.87 600.43 931.16 600.46 931.11 L 603.63 928.61 C 608.49 926.42 610.86 927.58 614.26 927.09 C 632.62 924.42 714.87 913.05 702.59 863.02 C 702.23 861.54 701.82 858.72 701.40 855.64 L 701.34 853.95 C 701.34 853.95 742.81 862.44 731.04 887.76 C 719.28 913.06 659.02 949.08 592.41 941.73 Z" fill="url(#SVGID_00000022550787414942818450000017384847863263193257_)" fill-rule="evenodd" node-id="312" stroke="none" target-height="88.746155" target-width="140.69086" target-x="592.41" target-y="853.95"></path><path d="M 540.48 964.14 C 540.48 966.86 537.36 969.07 533.52 969.07 C 529.68 969.07 526.56 966.86 526.56 964.14 C 526.56 961.42 529.68 959.21 533.52 959.21 C 537.36 959.21 540.48 961.42 540.48 964.14 Z" fill="url(#SVGID_00000097465367921521291410000015196406162422161037_)" fill-rule="evenodd" group-id="3" node-id="316" stroke="none" target-height="9.859985" target-width="13.919983" target-x="526.56" target-y="959.21"></path><path d="M 533.62 1105.56 L 533.41 1105.56 C 532.83 1105.56 532.35 1105.09 532.35 1104.50 L 532.35 1089.58 C 532.35 1089.00 532.82 1088.52 533.41 1088.52 L 533.62 1088.52 C 534.20 1088.52 534.68 1088.99 534.68 1089.58 L 534.68 1104.50 C 534.68 1105.08 534.21 1105.56 533.62 1105.56 Z" fill="url(#SVGID_00000015347144571186729260000000595596604917379741_)" fill-rule="evenodd" group-id="3" node-id="318" stroke="none" target-height="17.04004" target-width="2.330017" target-x="532.35" target-y="1088.52"></path><path d="M 533.90 1097.04 L 533.13 1097.04 C 531.01 1097.04 529.30 1095.32 529.30 1093.21 L 529.30 966.09 C 529.30 963.97 531.02 962.26 533.13 962.26 L 533.90 962.26 C 536.02 962.26 537.73 963.98 537.73 966.09 L 537.73 1093.21 C 537.74 1095.32 536.02 1097.04 533.90 1097.04 Z" fill="url(#SVGID_00000066496069555437837350000007353230116101699725_)" fill-rule="evenodd" group-id="3" node-id="320" stroke="none" target-height="134.78003" target-width="8.429993" target-x="529.3" target-y="962.26"></path><path d="M 674.37 964.14 C 674.37 966.86 671.25 969.07 667.41 969.07 C 663.57 969.07 660.45 966.86 660.45 964.14 C 660.45 961.42 663.57 959.21 667.41 959.21 C 671.25 959.21 674.37 961.42 674.37 964.14 Z" fill="url(#SVGID_00000018202970010821522180000001644865853782534054_)" fill-rule="evenodd" group-id="3" node-id="322" stroke="none" target-height="9.859985" target-width="13.919983" target-x="660.45" target-y="959.21"></path><path d="M 667.51 1105.56 L 667.30 1105.56 C 666.72 1105.56 666.24 1105.09 666.24 1104.50 L 666.24 1089.58 C 666.24 1089.00 666.71 1088.52 667.30 1088.52 L 667.51 1088.52 C 668.09 1088.52 668.57 1088.99 668.57 1089.58 L 668.57 1104.50 C 668.57 1105.08 668.10 1105.56 667.51 1105.56 Z" fill="url(#SVGID_00000179634784073871277410000005177971953739867048_)" fill-rule="evenodd" group-id="3" node-id="324" stroke="none" target-height="17.04004" target-width="2.330017" target-x="666.24" target-y="1088.52"></path><path d="M 667.79 1097.04 L 667.02 1097.04 C 664.90 1097.04 663.19 1095.32 663.19 1093.21 L 663.19 966.09 C 663.19 963.97 664.91 962.26 667.02 962.26 L 667.79 962.26 C 669.91 962.26 671.62 963.98 671.62 966.09 L 671.62 1093.21 C 671.63 1095.32 669.91 1097.04 667.79 1097.04 Z" fill="url(#SVGID_00000130629832915011491520000011632878094479347584_)" fill-rule="evenodd" group-id="3" node-id="326" stroke="none" target-height="134.78003" target-width="8.429993" target-x="663.19" target-y="962.26"></path><path d="M 603.44 768.97 C 582.44 768.97 568.40 761.32 567.53 760.83 C 565.12 759.48 564.26 756.44 565.61 754.03 C 566.96 751.62 570.00 750.76 572.41 752.10 C 573.62 752.77 600.91 767.39 636.12 751.89 C 638.65 750.78 641.60 751.93 642.71 754.45 C 643.82 756.98 642.67 759.93 640.15 761.04 C 626.65 766.98 614.14 768.97 603.44 768.97 Z" fill="#ffb094" fill-rule="nonzero" group-id="4" node-id="331" stroke="none" target-height="17.503601" target-width="78.133606" target-x="564.9693" target-y="751.4664"></path><path d="M 583.95 776.30 C 592.74 777.45 608.38 778.86 622.61 776.77 C 624.61 776.48 625.63 779.07 623.95 780.19 C 619.19 783.35 612.22 786.92 604.56 787.33 C 596.15 787.78 587.90 783.34 582.63 779.71 C 581.01 778.58 581.99 776.04 583.95 776.30 Z" fill="#fcc9bb" fill-rule="evenodd" node-id="334" stroke="none" target-height="11.030029" target-width="42.97705" target-x="581.81665" target-y="776.3"></path></svg>